G04 (created by PCBNEW (2013-07-07 BZR 4022)-stable) date 7.12.2014. 23:29:36*
%MOIN*%
G04 Gerber Fmt 3.4, Leading zero omitted, Abs format*
%FSLAX34Y34*%
G01*
G70*
G90*
G04 APERTURE LIST*
%ADD10C,0.00590551*%
%ADD11C,0.011811*%
%ADD12C,0.00787402*%
G04 APERTURE END LIST*
G54D10*
G54D11*
X5036Y-12556D02*
X5036Y-12218D01*
X5036Y-12387D02*
X5627Y-12387D01*
X5542Y-12331D01*
X5486Y-12275D01*
X5458Y-12218D01*
X5627Y-12921D02*
X5627Y-12978D01*
X5598Y-13034D01*
X5570Y-13062D01*
X5514Y-13090D01*
X5402Y-13118D01*
X5261Y-13118D01*
X5149Y-13090D01*
X5092Y-13062D01*
X5064Y-13034D01*
X5036Y-12978D01*
X5036Y-12921D01*
X5064Y-12865D01*
X5092Y-12837D01*
X5149Y-12809D01*
X5261Y-12781D01*
X5402Y-12781D01*
X5514Y-12809D01*
X5570Y-12837D01*
X5598Y-12865D01*
X5627Y-12921D01*
X5064Y-13399D02*
X5036Y-13399D01*
X4980Y-13371D01*
X4952Y-13343D01*
X5627Y-13765D02*
X5627Y-13821D01*
X5598Y-13877D01*
X5570Y-13906D01*
X5514Y-13934D01*
X5402Y-13962D01*
X5261Y-13962D01*
X5149Y-13934D01*
X5092Y-13906D01*
X5064Y-13877D01*
X5036Y-13821D01*
X5036Y-13765D01*
X5064Y-13709D01*
X5092Y-13681D01*
X5149Y-13652D01*
X5261Y-13624D01*
X5402Y-13624D01*
X5514Y-13652D01*
X5570Y-13681D01*
X5598Y-13709D01*
X5627Y-13765D01*
X5627Y-14327D02*
X5627Y-14384D01*
X5598Y-14440D01*
X5570Y-14468D01*
X5514Y-14496D01*
X5402Y-14524D01*
X5261Y-14524D01*
X5149Y-14496D01*
X5092Y-14468D01*
X5064Y-14440D01*
X5036Y-14384D01*
X5036Y-14327D01*
X5064Y-14271D01*
X5092Y-14243D01*
X5149Y-14215D01*
X5261Y-14187D01*
X5402Y-14187D01*
X5514Y-14215D01*
X5570Y-14243D01*
X5598Y-14271D01*
X5627Y-14327D01*
X5627Y-14890D02*
X5627Y-14946D01*
X5598Y-15002D01*
X5570Y-15030D01*
X5514Y-15059D01*
X5402Y-15087D01*
X5261Y-15087D01*
X5149Y-15059D01*
X5092Y-15030D01*
X5064Y-15002D01*
X5036Y-14946D01*
X5036Y-14890D01*
X5064Y-14834D01*
X5092Y-14805D01*
X5149Y-14777D01*
X5261Y-14749D01*
X5402Y-14749D01*
X5514Y-14777D01*
X5570Y-14805D01*
X5598Y-14834D01*
X5627Y-14890D01*
X5036Y-15790D02*
X5430Y-15790D01*
X5374Y-15790D02*
X5402Y-15818D01*
X5430Y-15874D01*
X5430Y-15958D01*
X5402Y-16015D01*
X5345Y-16043D01*
X5036Y-16043D01*
X5345Y-16043D02*
X5402Y-16071D01*
X5430Y-16127D01*
X5430Y-16212D01*
X5402Y-16268D01*
X5345Y-16296D01*
X5036Y-16296D01*
X5036Y-16577D02*
X5430Y-16577D01*
X5374Y-16577D02*
X5402Y-16605D01*
X5430Y-16661D01*
X5430Y-16746D01*
X5402Y-16802D01*
X5345Y-16830D01*
X5036Y-16830D01*
X5345Y-16830D02*
X5402Y-16858D01*
X5430Y-16915D01*
X5430Y-16999D01*
X5402Y-17055D01*
X5345Y-17083D01*
X5036Y-17083D01*
X5807Y-12696D02*
X5807Y-16633D01*
X31102Y-12696D02*
X4744Y-12696D01*
X31102Y-16633D02*
X4744Y-16633D01*
X5807Y-16633D02*
X5576Y-16190D01*
X5807Y-16633D02*
X6037Y-16190D01*
X5807Y-12696D02*
X5576Y-13140D01*
X5807Y-12696D02*
X6037Y-13140D01*
X32280Y-8619D02*
X32280Y-8281D01*
X32280Y-8450D02*
X32871Y-8450D01*
X32786Y-8394D01*
X32730Y-8338D01*
X32702Y-8281D01*
X32871Y-8984D02*
X32871Y-9041D01*
X32843Y-9097D01*
X32814Y-9125D01*
X32758Y-9153D01*
X32646Y-9181D01*
X32505Y-9181D01*
X32393Y-9153D01*
X32336Y-9125D01*
X32308Y-9097D01*
X32280Y-9041D01*
X32280Y-8984D01*
X32308Y-8928D01*
X32336Y-8900D01*
X32393Y-8872D01*
X32505Y-8844D01*
X32646Y-8844D01*
X32758Y-8872D01*
X32814Y-8900D01*
X32843Y-8928D01*
X32871Y-8984D01*
X32308Y-9462D02*
X32280Y-9462D01*
X32224Y-9434D01*
X32196Y-9406D01*
X32871Y-9828D02*
X32871Y-9884D01*
X32843Y-9940D01*
X32814Y-9969D01*
X32758Y-9997D01*
X32646Y-10025D01*
X32505Y-10025D01*
X32393Y-9997D01*
X32336Y-9969D01*
X32308Y-9940D01*
X32280Y-9884D01*
X32280Y-9828D01*
X32308Y-9772D01*
X32336Y-9744D01*
X32393Y-9715D01*
X32505Y-9687D01*
X32646Y-9687D01*
X32758Y-9715D01*
X32814Y-9744D01*
X32843Y-9772D01*
X32871Y-9828D01*
X32871Y-10390D02*
X32871Y-10447D01*
X32843Y-10503D01*
X32814Y-10531D01*
X32758Y-10559D01*
X32646Y-10587D01*
X32505Y-10587D01*
X32393Y-10559D01*
X32336Y-10531D01*
X32308Y-10503D01*
X32280Y-10447D01*
X32280Y-10390D01*
X32308Y-10334D01*
X32336Y-10306D01*
X32393Y-10278D01*
X32505Y-10250D01*
X32646Y-10250D01*
X32758Y-10278D01*
X32814Y-10306D01*
X32843Y-10334D01*
X32871Y-10390D01*
X32871Y-10953D02*
X32871Y-11009D01*
X32843Y-11065D01*
X32814Y-11093D01*
X32758Y-11122D01*
X32646Y-11150D01*
X32505Y-11150D01*
X32393Y-11122D01*
X32336Y-11093D01*
X32308Y-11065D01*
X32280Y-11009D01*
X32280Y-10953D01*
X32308Y-10897D01*
X32336Y-10868D01*
X32393Y-10840D01*
X32505Y-10812D01*
X32646Y-10812D01*
X32758Y-10840D01*
X32814Y-10868D01*
X32843Y-10897D01*
X32871Y-10953D01*
X32280Y-11853D02*
X32674Y-11853D01*
X32618Y-11853D02*
X32646Y-11881D01*
X32674Y-11937D01*
X32674Y-12021D01*
X32646Y-12078D01*
X32589Y-12106D01*
X32280Y-12106D01*
X32589Y-12106D02*
X32646Y-12134D01*
X32674Y-12190D01*
X32674Y-12275D01*
X32646Y-12331D01*
X32589Y-12359D01*
X32280Y-12359D01*
X32280Y-12640D02*
X32674Y-12640D01*
X32618Y-12640D02*
X32646Y-12668D01*
X32674Y-12724D01*
X32674Y-12809D01*
X32646Y-12865D01*
X32589Y-12893D01*
X32280Y-12893D01*
X32589Y-12893D02*
X32646Y-12921D01*
X32674Y-12978D01*
X32674Y-13062D01*
X32646Y-13118D01*
X32589Y-13146D01*
X32280Y-13146D01*
X31988Y-8759D02*
X31988Y-12696D01*
X31003Y-8759D02*
X33051Y-8759D01*
X31003Y-12696D02*
X33051Y-12696D01*
X31988Y-12696D02*
X31757Y-12253D01*
X31988Y-12696D02*
X32219Y-12253D01*
X31988Y-8759D02*
X31757Y-9203D01*
X31988Y-8759D02*
X32219Y-9203D01*
G54D12*
X15354Y-21358D02*
X20866Y-26870D01*
X18110Y-24114D02*
X15354Y-21358D01*
X21062Y-21161D02*
X15354Y-26870D01*
X18110Y-24114D02*
X21062Y-21161D01*
X18110Y-19980D02*
X18110Y-28248D01*
X13385Y-24114D02*
X22637Y-24114D01*
G54D11*
X-1164Y-8619D02*
X-1164Y-8281D01*
X-1164Y-8450D02*
X-573Y-8450D01*
X-658Y-8394D01*
X-714Y-8338D01*
X-742Y-8281D01*
X-573Y-8984D02*
X-573Y-9041D01*
X-601Y-9097D01*
X-629Y-9125D01*
X-686Y-9153D01*
X-798Y-9181D01*
X-939Y-9181D01*
X-1051Y-9153D01*
X-1107Y-9125D01*
X-1136Y-9097D01*
X-1164Y-9041D01*
X-1164Y-8984D01*
X-1136Y-8928D01*
X-1107Y-8900D01*
X-1051Y-8872D01*
X-939Y-8844D01*
X-798Y-8844D01*
X-686Y-8872D01*
X-629Y-8900D01*
X-601Y-8928D01*
X-573Y-8984D01*
X-1136Y-9462D02*
X-1164Y-9462D01*
X-1220Y-9434D01*
X-1248Y-9406D01*
X-573Y-9828D02*
X-573Y-9884D01*
X-601Y-9940D01*
X-629Y-9969D01*
X-686Y-9997D01*
X-798Y-10025D01*
X-939Y-10025D01*
X-1051Y-9997D01*
X-1107Y-9969D01*
X-1136Y-9940D01*
X-1164Y-9884D01*
X-1164Y-9828D01*
X-1136Y-9772D01*
X-1107Y-9744D01*
X-1051Y-9715D01*
X-939Y-9687D01*
X-798Y-9687D01*
X-686Y-9715D01*
X-629Y-9744D01*
X-601Y-9772D01*
X-573Y-9828D01*
X-573Y-10390D02*
X-573Y-10447D01*
X-601Y-10503D01*
X-629Y-10531D01*
X-686Y-10559D01*
X-798Y-10587D01*
X-939Y-10587D01*
X-1051Y-10559D01*
X-1107Y-10531D01*
X-1136Y-10503D01*
X-1164Y-10447D01*
X-1164Y-10390D01*
X-1136Y-10334D01*
X-1107Y-10306D01*
X-1051Y-10278D01*
X-939Y-10250D01*
X-798Y-10250D01*
X-686Y-10278D01*
X-629Y-10306D01*
X-601Y-10334D01*
X-573Y-10390D01*
X-573Y-10953D02*
X-573Y-11009D01*
X-601Y-11065D01*
X-629Y-11093D01*
X-686Y-11122D01*
X-798Y-11150D01*
X-939Y-11150D01*
X-1051Y-11122D01*
X-1107Y-11093D01*
X-1136Y-11065D01*
X-1164Y-11009D01*
X-1164Y-10953D01*
X-1136Y-10897D01*
X-1107Y-10868D01*
X-1051Y-10840D01*
X-939Y-10812D01*
X-798Y-10812D01*
X-686Y-10840D01*
X-629Y-10868D01*
X-601Y-10897D01*
X-573Y-10953D01*
X-1164Y-11853D02*
X-770Y-11853D01*
X-826Y-11853D02*
X-798Y-11881D01*
X-770Y-11937D01*
X-770Y-12021D01*
X-798Y-12078D01*
X-854Y-12106D01*
X-1164Y-12106D01*
X-854Y-12106D02*
X-798Y-12134D01*
X-770Y-12190D01*
X-770Y-12275D01*
X-798Y-12331D01*
X-854Y-12359D01*
X-1164Y-12359D01*
X-1164Y-12640D02*
X-770Y-12640D01*
X-826Y-12640D02*
X-798Y-12668D01*
X-770Y-12724D01*
X-770Y-12809D01*
X-798Y-12865D01*
X-854Y-12893D01*
X-1164Y-12893D01*
X-854Y-12893D02*
X-798Y-12921D01*
X-770Y-12978D01*
X-770Y-13062D01*
X-798Y-13118D01*
X-854Y-13146D01*
X-1164Y-13146D01*
X-393Y-8759D02*
X-393Y-12696D01*
X9842Y-8759D02*
X-1456Y-8759D01*
X9842Y-12696D02*
X-1456Y-12696D01*
X-393Y-12696D02*
X-624Y-12253D01*
X-393Y-12696D02*
X-162Y-12253D01*
X-393Y-8759D02*
X-624Y-9203D01*
X-393Y-8759D02*
X-162Y-9203D01*
X15663Y-38326D02*
X15691Y-38298D01*
X15748Y-38270D01*
X15888Y-38270D01*
X15944Y-38298D01*
X15973Y-38326D01*
X16001Y-38383D01*
X16001Y-38439D01*
X15973Y-38523D01*
X15635Y-38861D01*
X16001Y-38861D01*
X16507Y-38270D02*
X16394Y-38270D01*
X16338Y-38298D01*
X16310Y-38326D01*
X16254Y-38411D01*
X16226Y-38523D01*
X16226Y-38748D01*
X16254Y-38804D01*
X16282Y-38832D01*
X16338Y-38861D01*
X16451Y-38861D01*
X16507Y-38832D01*
X16535Y-38804D01*
X16563Y-38748D01*
X16563Y-38607D01*
X16535Y-38551D01*
X16507Y-38523D01*
X16451Y-38495D01*
X16338Y-38495D01*
X16282Y-38523D01*
X16254Y-38551D01*
X16226Y-38607D01*
X16844Y-38832D02*
X16844Y-38861D01*
X16816Y-38917D01*
X16788Y-38945D01*
X17210Y-38270D02*
X17266Y-38270D01*
X17322Y-38298D01*
X17350Y-38326D01*
X17379Y-38383D01*
X17407Y-38495D01*
X17407Y-38636D01*
X17379Y-38748D01*
X17350Y-38804D01*
X17322Y-38832D01*
X17266Y-38861D01*
X17210Y-38861D01*
X17154Y-38832D01*
X17125Y-38804D01*
X17097Y-38748D01*
X17069Y-38636D01*
X17069Y-38495D01*
X17097Y-38383D01*
X17125Y-38326D01*
X17154Y-38298D01*
X17210Y-38270D01*
X17772Y-38270D02*
X17829Y-38270D01*
X17885Y-38298D01*
X17913Y-38326D01*
X17941Y-38383D01*
X17969Y-38495D01*
X17969Y-38636D01*
X17941Y-38748D01*
X17913Y-38804D01*
X17885Y-38832D01*
X17829Y-38861D01*
X17772Y-38861D01*
X17716Y-38832D01*
X17688Y-38804D01*
X17660Y-38748D01*
X17632Y-38636D01*
X17632Y-38495D01*
X17660Y-38383D01*
X17688Y-38326D01*
X17716Y-38298D01*
X17772Y-38270D01*
X18335Y-38270D02*
X18391Y-38270D01*
X18447Y-38298D01*
X18475Y-38326D01*
X18503Y-38383D01*
X18532Y-38495D01*
X18532Y-38636D01*
X18503Y-38748D01*
X18475Y-38804D01*
X18447Y-38832D01*
X18391Y-38861D01*
X18335Y-38861D01*
X18278Y-38832D01*
X18250Y-38804D01*
X18222Y-38748D01*
X18194Y-38636D01*
X18194Y-38495D01*
X18222Y-38383D01*
X18250Y-38326D01*
X18278Y-38298D01*
X18335Y-38270D01*
X19235Y-38861D02*
X19235Y-38467D01*
X19235Y-38523D02*
X19263Y-38495D01*
X19319Y-38467D01*
X19403Y-38467D01*
X19460Y-38495D01*
X19488Y-38551D01*
X19488Y-38861D01*
X19488Y-38551D02*
X19516Y-38495D01*
X19572Y-38467D01*
X19656Y-38467D01*
X19713Y-38495D01*
X19741Y-38551D01*
X19741Y-38861D01*
X20022Y-38861D02*
X20022Y-38467D01*
X20022Y-38523D02*
X20050Y-38495D01*
X20106Y-38467D01*
X20191Y-38467D01*
X20247Y-38495D01*
X20275Y-38551D01*
X20275Y-38861D01*
X20275Y-38551D02*
X20303Y-38495D01*
X20359Y-38467D01*
X20444Y-38467D01*
X20500Y-38495D01*
X20528Y-38551D01*
X20528Y-38861D01*
X12992Y-38090D02*
X23228Y-38090D01*
X12992Y-32381D02*
X12992Y-39153D01*
X23228Y-32381D02*
X23228Y-39153D01*
X23228Y-38090D02*
X22784Y-38321D01*
X23228Y-38090D02*
X22784Y-37859D01*
X12992Y-38090D02*
X13435Y-38321D01*
X12992Y-38090D02*
X13435Y-37859D01*
X2716Y-12218D02*
X2744Y-12162D01*
X2772Y-12134D01*
X2829Y-12106D01*
X2857Y-12106D01*
X2913Y-12134D01*
X2941Y-12162D01*
X2969Y-12218D01*
X2969Y-12331D01*
X2941Y-12387D01*
X2913Y-12415D01*
X2857Y-12443D01*
X2829Y-12443D01*
X2772Y-12415D01*
X2744Y-12387D01*
X2716Y-12331D01*
X2716Y-12218D01*
X2688Y-12162D01*
X2660Y-12134D01*
X2604Y-12106D01*
X2491Y-12106D01*
X2435Y-12134D01*
X2407Y-12162D01*
X2379Y-12218D01*
X2379Y-12331D01*
X2407Y-12387D01*
X2435Y-12415D01*
X2491Y-12443D01*
X2604Y-12443D01*
X2660Y-12415D01*
X2688Y-12387D01*
X2716Y-12331D01*
X2407Y-12724D02*
X2379Y-12724D01*
X2322Y-12696D01*
X2294Y-12668D01*
X2969Y-13090D02*
X2969Y-13146D01*
X2941Y-13203D01*
X2913Y-13231D01*
X2857Y-13259D01*
X2744Y-13287D01*
X2604Y-13287D01*
X2491Y-13259D01*
X2435Y-13231D01*
X2407Y-13203D01*
X2379Y-13146D01*
X2379Y-13090D01*
X2407Y-13034D01*
X2435Y-13006D01*
X2491Y-12978D01*
X2604Y-12949D01*
X2744Y-12949D01*
X2857Y-12978D01*
X2913Y-13006D01*
X2941Y-13034D01*
X2969Y-13090D01*
X2969Y-13652D02*
X2969Y-13709D01*
X2941Y-13765D01*
X2913Y-13793D01*
X2857Y-13821D01*
X2744Y-13849D01*
X2604Y-13849D01*
X2491Y-13821D01*
X2435Y-13793D01*
X2407Y-13765D01*
X2379Y-13709D01*
X2379Y-13652D01*
X2407Y-13596D01*
X2435Y-13568D01*
X2491Y-13540D01*
X2604Y-13512D01*
X2744Y-13512D01*
X2857Y-13540D01*
X2913Y-13568D01*
X2941Y-13596D01*
X2969Y-13652D01*
X2969Y-14215D02*
X2969Y-14271D01*
X2941Y-14327D01*
X2913Y-14356D01*
X2857Y-14384D01*
X2744Y-14412D01*
X2604Y-14412D01*
X2491Y-14384D01*
X2435Y-14356D01*
X2407Y-14327D01*
X2379Y-14271D01*
X2379Y-14215D01*
X2407Y-14159D01*
X2435Y-14131D01*
X2491Y-14102D01*
X2604Y-14074D01*
X2744Y-14074D01*
X2857Y-14102D01*
X2913Y-14131D01*
X2941Y-14159D01*
X2969Y-14215D01*
X2379Y-15115D02*
X2772Y-15115D01*
X2716Y-15115D02*
X2744Y-15143D01*
X2772Y-15199D01*
X2772Y-15284D01*
X2744Y-15340D01*
X2688Y-15368D01*
X2379Y-15368D01*
X2688Y-15368D02*
X2744Y-15396D01*
X2772Y-15452D01*
X2772Y-15537D01*
X2744Y-15593D01*
X2688Y-15621D01*
X2379Y-15621D01*
X2379Y-15902D02*
X2772Y-15902D01*
X2716Y-15902D02*
X2744Y-15930D01*
X2772Y-15987D01*
X2772Y-16071D01*
X2744Y-16127D01*
X2688Y-16155D01*
X2379Y-16155D01*
X2688Y-16155D02*
X2744Y-16183D01*
X2772Y-16240D01*
X2772Y-16324D01*
X2744Y-16380D01*
X2688Y-16408D01*
X2379Y-16408D01*
X3149Y-12696D02*
X3149Y-15846D01*
X5511Y-12696D02*
X2086Y-12696D01*
X5511Y-15846D02*
X2086Y-15846D01*
X3149Y-15846D02*
X2918Y-15402D01*
X3149Y-15846D02*
X3380Y-15402D01*
X3149Y-12696D02*
X2918Y-13140D01*
X3149Y-12696D02*
X3380Y-13140D01*
X35528Y-18405D02*
X35528Y-18293D01*
X35500Y-18236D01*
X35472Y-18208D01*
X35388Y-18152D01*
X35275Y-18124D01*
X35050Y-18124D01*
X34994Y-18152D01*
X34966Y-18180D01*
X34938Y-18236D01*
X34938Y-18349D01*
X34966Y-18405D01*
X34994Y-18433D01*
X35050Y-18461D01*
X35191Y-18461D01*
X35247Y-18433D01*
X35275Y-18405D01*
X35303Y-18349D01*
X35303Y-18236D01*
X35275Y-18180D01*
X35247Y-18152D01*
X35191Y-18124D01*
X35528Y-18827D02*
X35528Y-18883D01*
X35500Y-18939D01*
X35472Y-18967D01*
X35416Y-18996D01*
X35303Y-19024D01*
X35163Y-19024D01*
X35050Y-18996D01*
X34994Y-18967D01*
X34966Y-18939D01*
X34938Y-18883D01*
X34938Y-18827D01*
X34966Y-18771D01*
X34994Y-18742D01*
X35050Y-18714D01*
X35163Y-18686D01*
X35303Y-18686D01*
X35416Y-18714D01*
X35472Y-18742D01*
X35500Y-18771D01*
X35528Y-18827D01*
X34966Y-19305D02*
X34938Y-19305D01*
X34881Y-19277D01*
X34853Y-19249D01*
X35528Y-19670D02*
X35528Y-19727D01*
X35500Y-19783D01*
X35472Y-19811D01*
X35416Y-19839D01*
X35303Y-19867D01*
X35163Y-19867D01*
X35050Y-19839D01*
X34994Y-19811D01*
X34966Y-19783D01*
X34938Y-19727D01*
X34938Y-19670D01*
X34966Y-19614D01*
X34994Y-19586D01*
X35050Y-19558D01*
X35163Y-19530D01*
X35303Y-19530D01*
X35416Y-19558D01*
X35472Y-19586D01*
X35500Y-19614D01*
X35528Y-19670D01*
X35528Y-20233D02*
X35528Y-20289D01*
X35500Y-20345D01*
X35472Y-20374D01*
X35416Y-20402D01*
X35303Y-20430D01*
X35163Y-20430D01*
X35050Y-20402D01*
X34994Y-20374D01*
X34966Y-20345D01*
X34938Y-20289D01*
X34938Y-20233D01*
X34966Y-20177D01*
X34994Y-20149D01*
X35050Y-20120D01*
X35163Y-20092D01*
X35303Y-20092D01*
X35416Y-20120D01*
X35472Y-20149D01*
X35500Y-20177D01*
X35528Y-20233D01*
X35528Y-20795D02*
X35528Y-20852D01*
X35500Y-20908D01*
X35472Y-20936D01*
X35416Y-20964D01*
X35303Y-20992D01*
X35163Y-20992D01*
X35050Y-20964D01*
X34994Y-20936D01*
X34966Y-20908D01*
X34938Y-20852D01*
X34938Y-20795D01*
X34966Y-20739D01*
X34994Y-20711D01*
X35050Y-20683D01*
X35163Y-20655D01*
X35303Y-20655D01*
X35416Y-20683D01*
X35472Y-20711D01*
X35500Y-20739D01*
X35528Y-20795D01*
X34938Y-21695D02*
X35331Y-21695D01*
X35275Y-21695D02*
X35303Y-21723D01*
X35331Y-21780D01*
X35331Y-21864D01*
X35303Y-21920D01*
X35247Y-21948D01*
X34938Y-21948D01*
X35247Y-21948D02*
X35303Y-21976D01*
X35331Y-22033D01*
X35331Y-22117D01*
X35303Y-22173D01*
X35247Y-22201D01*
X34938Y-22201D01*
X34938Y-22483D02*
X35331Y-22483D01*
X35275Y-22483D02*
X35303Y-22511D01*
X35331Y-22567D01*
X35331Y-22651D01*
X35303Y-22708D01*
X35247Y-22736D01*
X34938Y-22736D01*
X35247Y-22736D02*
X35303Y-22764D01*
X35331Y-22820D01*
X35331Y-22904D01*
X35303Y-22961D01*
X35247Y-22989D01*
X34938Y-22989D01*
X34645Y-8759D02*
X34645Y-32381D01*
X26377Y-8759D02*
X35708Y-8759D01*
X26377Y-32381D02*
X35708Y-32381D01*
X34645Y-32381D02*
X34414Y-31938D01*
X34645Y-32381D02*
X34876Y-31938D01*
X34645Y-8759D02*
X34414Y-9203D01*
X34645Y-8759D02*
X34876Y-9203D01*
X15944Y-3349D02*
X15944Y-3742D01*
X15804Y-3124D02*
X15663Y-3546D01*
X16029Y-3546D01*
X16226Y-3208D02*
X16254Y-3180D01*
X16310Y-3152D01*
X16451Y-3152D01*
X16507Y-3180D01*
X16535Y-3208D01*
X16563Y-3264D01*
X16563Y-3321D01*
X16535Y-3405D01*
X16197Y-3742D01*
X16563Y-3742D01*
X16844Y-3714D02*
X16844Y-3742D01*
X16816Y-3799D01*
X16788Y-3827D01*
X17210Y-3152D02*
X17266Y-3152D01*
X17322Y-3180D01*
X17350Y-3208D01*
X17379Y-3264D01*
X17407Y-3377D01*
X17407Y-3517D01*
X17379Y-3630D01*
X17350Y-3686D01*
X17322Y-3714D01*
X17266Y-3742D01*
X17210Y-3742D01*
X17154Y-3714D01*
X17125Y-3686D01*
X17097Y-3630D01*
X17069Y-3517D01*
X17069Y-3377D01*
X17097Y-3264D01*
X17125Y-3208D01*
X17154Y-3180D01*
X17210Y-3152D01*
X17772Y-3152D02*
X17829Y-3152D01*
X17885Y-3180D01*
X17913Y-3208D01*
X17941Y-3264D01*
X17969Y-3377D01*
X17969Y-3517D01*
X17941Y-3630D01*
X17913Y-3686D01*
X17885Y-3714D01*
X17829Y-3742D01*
X17772Y-3742D01*
X17716Y-3714D01*
X17688Y-3686D01*
X17660Y-3630D01*
X17632Y-3517D01*
X17632Y-3377D01*
X17660Y-3264D01*
X17688Y-3208D01*
X17716Y-3180D01*
X17772Y-3152D01*
X18335Y-3152D02*
X18391Y-3152D01*
X18447Y-3180D01*
X18475Y-3208D01*
X18503Y-3264D01*
X18532Y-3377D01*
X18532Y-3517D01*
X18503Y-3630D01*
X18475Y-3686D01*
X18447Y-3714D01*
X18391Y-3742D01*
X18335Y-3742D01*
X18278Y-3714D01*
X18250Y-3686D01*
X18222Y-3630D01*
X18194Y-3517D01*
X18194Y-3377D01*
X18222Y-3264D01*
X18250Y-3208D01*
X18278Y-3180D01*
X18335Y-3152D01*
X19235Y-3742D02*
X19235Y-3349D01*
X19235Y-3405D02*
X19263Y-3377D01*
X19319Y-3349D01*
X19403Y-3349D01*
X19460Y-3377D01*
X19488Y-3433D01*
X19488Y-3742D01*
X19488Y-3433D02*
X19516Y-3377D01*
X19572Y-3349D01*
X19656Y-3349D01*
X19713Y-3377D01*
X19741Y-3433D01*
X19741Y-3742D01*
X20022Y-3742D02*
X20022Y-3349D01*
X20022Y-3405D02*
X20050Y-3377D01*
X20106Y-3349D01*
X20191Y-3349D01*
X20247Y-3377D01*
X20275Y-3433D01*
X20275Y-3742D01*
X20275Y-3433D02*
X20303Y-3377D01*
X20359Y-3349D01*
X20444Y-3349D01*
X20500Y-3377D01*
X20528Y-3433D01*
X20528Y-3742D01*
X9842Y-4035D02*
X26377Y-4035D01*
X9842Y-8759D02*
X9842Y-2972D01*
X26377Y-8759D02*
X26377Y-2972D01*
X26377Y-4035D02*
X25934Y-4266D01*
X26377Y-4035D02*
X25934Y-3804D01*
X9842Y-4035D02*
X10286Y-4266D01*
X9842Y-4035D02*
X10286Y-3804D01*
M02*
