G04 (created by PCBNEW (2013-07-07 BZR 4022)-stable) date 7.12.2014. 23:29:36*
%MOIN*%
G04 Gerber Fmt 3.4, Leading zero omitted, Abs format*
%FSLAX34Y34*%
G01*
G70*
G90*
G04 APERTURE LIST*
%ADD10C,0.00590551*%
%ADD11C,0.0031*%
%ADD12C,0.005*%
%ADD13C,0.015*%
%ADD14C,0.0047*%
%ADD15C,0.0039*%
%ADD16C,0.008*%
%ADD17C,0.0051*%
G04 APERTURE END LIST*
G54D10*
G54D11*
X12995Y-10994D02*
G75*
G03X12995Y-10994I-62J0D01*
G74*
G01*
X12595Y-10031D02*
X12995Y-10031D01*
X12595Y-11056D02*
X12995Y-11056D01*
X12995Y-10031D02*
X12995Y-11056D01*
X12595Y-11056D02*
X12595Y-10031D01*
X20309Y-9704D02*
G75*
G03X20309Y-9704I-62J0D01*
G74*
G01*
X19283Y-10042D02*
X19283Y-9642D01*
X20308Y-10042D02*
X20308Y-9642D01*
X19283Y-9642D02*
X20308Y-9642D01*
X20308Y-10042D02*
X19283Y-10042D01*
G54D12*
X14820Y-9531D02*
X13920Y-9531D01*
X13920Y-9531D02*
X13920Y-10181D01*
X14820Y-10881D02*
X14820Y-11531D01*
X14820Y-11531D02*
X13920Y-11531D01*
X13920Y-11531D02*
X13920Y-10881D01*
X14820Y-10181D02*
X14820Y-9531D01*
X21892Y-23834D02*
X22792Y-23834D01*
X22792Y-23834D02*
X22792Y-23184D01*
X21892Y-22484D02*
X21892Y-21834D01*
X21892Y-21834D02*
X22792Y-21834D01*
X22792Y-21834D02*
X22792Y-22484D01*
X21892Y-23184D02*
X21892Y-23834D01*
X15494Y-28755D02*
X16394Y-28755D01*
X16394Y-28755D02*
X16394Y-28105D01*
X15494Y-27405D02*
X15494Y-26755D01*
X15494Y-26755D02*
X16394Y-26755D01*
X16394Y-26755D02*
X16394Y-27405D01*
X15494Y-28105D02*
X15494Y-28755D01*
X22286Y-19602D02*
X23186Y-19602D01*
X23186Y-19602D02*
X23186Y-18952D01*
X22286Y-18252D02*
X22286Y-17602D01*
X22286Y-17602D02*
X23186Y-17602D01*
X23186Y-17602D02*
X23186Y-18252D01*
X22286Y-18952D02*
X22286Y-19602D01*
X18953Y-26854D02*
X18053Y-26854D01*
X18053Y-26854D02*
X18053Y-27504D01*
X18953Y-28204D02*
X18953Y-28854D01*
X18953Y-28854D02*
X18053Y-28854D01*
X18053Y-28854D02*
X18053Y-28204D01*
X18953Y-27504D02*
X18953Y-26854D01*
X12556Y-17700D02*
X11656Y-17700D01*
X11656Y-17700D02*
X11656Y-18350D01*
X12556Y-19050D02*
X12556Y-19700D01*
X12556Y-19700D02*
X11656Y-19700D01*
X11656Y-19700D02*
X11656Y-19050D01*
X12556Y-18350D02*
X12556Y-17700D01*
X19431Y-13500D02*
X20331Y-13500D01*
X20331Y-13500D02*
X20331Y-12850D01*
X19431Y-12150D02*
X19431Y-11500D01*
X19431Y-11500D02*
X20331Y-11500D01*
X20331Y-11500D02*
X20331Y-12150D01*
X19431Y-12850D02*
X19431Y-13500D01*
X18250Y-13500D02*
X19150Y-13500D01*
X19150Y-13500D02*
X19150Y-12850D01*
X18250Y-12150D02*
X18250Y-11500D01*
X18250Y-11500D02*
X19150Y-11500D01*
X19150Y-11500D02*
X19150Y-12150D01*
X18250Y-12850D02*
X18250Y-13500D01*
X15199Y-13500D02*
X16099Y-13500D01*
X16099Y-13500D02*
X16099Y-12850D01*
X15199Y-12150D02*
X15199Y-11500D01*
X15199Y-11500D02*
X16099Y-11500D01*
X16099Y-11500D02*
X16099Y-12150D01*
X15199Y-12850D02*
X15199Y-13500D01*
X13992Y-12950D02*
X13992Y-12050D01*
X13992Y-12050D02*
X13342Y-12050D01*
X12642Y-12950D02*
X11992Y-12950D01*
X11992Y-12950D02*
X11992Y-12050D01*
X11992Y-12050D02*
X12642Y-12050D01*
X13342Y-12950D02*
X13992Y-12950D01*
G54D10*
X17656Y-15157D02*
G75*
G03X17656Y-15157I-431J0D01*
G74*
G01*
X16673Y-15433D02*
X17047Y-15787D01*
X16673Y-14527D02*
X17775Y-14527D01*
X17775Y-14527D02*
X17775Y-15787D01*
X17775Y-15787D02*
X16673Y-15787D01*
X16673Y-15787D02*
X16673Y-14527D01*
X21593Y-24803D02*
G75*
G03X21593Y-24803I-431J0D01*
G74*
G01*
X20966Y-25387D02*
X21481Y-25373D01*
X20326Y-24747D02*
X21105Y-23967D01*
X21105Y-23967D02*
X21996Y-24858D01*
X21996Y-24858D02*
X21217Y-25638D01*
X21217Y-25638D02*
X20326Y-24747D01*
X13719Y-24803D02*
G75*
G03X13719Y-24803I-431J0D01*
G74*
G01*
X13872Y-24998D02*
X13858Y-24483D01*
X13231Y-25638D02*
X12452Y-24858D01*
X12452Y-24858D02*
X13343Y-23967D01*
X13343Y-23967D02*
X14122Y-24747D01*
X14122Y-24747D02*
X13231Y-25638D01*
X15097Y-27362D02*
G75*
G03X15097Y-27362I-431J0D01*
G74*
G01*
X14114Y-27637D02*
X14488Y-27992D01*
X14114Y-26732D02*
X15216Y-26732D01*
X15216Y-26732D02*
X15216Y-27992D01*
X15216Y-27992D02*
X14114Y-27992D01*
X14114Y-27992D02*
X14114Y-26732D01*
X12341Y-20866D02*
G75*
G03X12341Y-20866I-431J0D01*
G74*
G01*
X11633Y-20314D02*
X11279Y-20688D01*
X12539Y-20314D02*
X12539Y-21417D01*
X12539Y-21417D02*
X11279Y-21417D01*
X11279Y-21417D02*
X11279Y-20314D01*
X11279Y-20314D02*
X12539Y-20314D01*
X22971Y-20866D02*
G75*
G03X22971Y-20866I-431J0D01*
G74*
G01*
X22814Y-21417D02*
X23169Y-21043D01*
X21909Y-21417D02*
X21909Y-20314D01*
X21909Y-20314D02*
X23169Y-20314D01*
X23169Y-20314D02*
X23169Y-21417D01*
X23169Y-21417D02*
X21909Y-21417D01*
X21789Y-16929D02*
G75*
G03X21789Y-16929I-431J0D01*
G74*
G01*
X20773Y-16734D02*
X20787Y-17249D01*
X21413Y-16093D02*
X22193Y-16873D01*
X22193Y-16873D02*
X21302Y-17764D01*
X21302Y-17764D02*
X20523Y-16984D01*
X20523Y-16984D02*
X21413Y-16093D01*
X20215Y-27362D02*
G75*
G03X20215Y-27362I-431J0D01*
G74*
G01*
X19232Y-27637D02*
X19606Y-27992D01*
X19232Y-26732D02*
X20334Y-26732D01*
X20334Y-26732D02*
X20334Y-27992D01*
X20334Y-27992D02*
X19232Y-27992D01*
X19232Y-27992D02*
X19232Y-26732D01*
X17656Y-26181D02*
G75*
G03X17656Y-26181I-431J0D01*
G74*
G01*
X16673Y-26456D02*
X17047Y-26811D01*
X16673Y-25551D02*
X17775Y-25551D01*
X17775Y-25551D02*
X17775Y-26811D01*
X17775Y-26811D02*
X16673Y-26811D01*
X16673Y-26811D02*
X16673Y-25551D01*
X13719Y-16929D02*
G75*
G03X13719Y-16929I-431J0D01*
G74*
G01*
X13482Y-16344D02*
X12967Y-16358D01*
X14122Y-16984D02*
X13343Y-17764D01*
X13343Y-17764D02*
X12452Y-16873D01*
X12452Y-16873D02*
X13231Y-16093D01*
X13231Y-16093D02*
X14122Y-16984D01*
G54D13*
X25197Y-8661D02*
X21653Y-8661D01*
X25197Y-7283D02*
X21653Y-7283D01*
X21653Y-7283D02*
X21653Y-12992D01*
X21653Y-12992D02*
X25197Y-12992D01*
X25197Y-12992D02*
X25197Y-7283D01*
G54D10*
X10019Y-7362D02*
X9822Y-7362D01*
X9822Y-7362D02*
X9822Y-8779D01*
X9822Y-8779D02*
X10019Y-8779D01*
X10019Y-6692D02*
X10019Y-9448D01*
X10019Y-9448D02*
X12165Y-9448D01*
X12165Y-9448D02*
X12165Y-6692D01*
X12165Y-6692D02*
X10019Y-6692D01*
G54D14*
X16624Y-12743D02*
X17824Y-12743D01*
X17824Y-12743D02*
X17824Y-13043D01*
X17824Y-13043D02*
X16624Y-13043D01*
X16624Y-13043D02*
X16624Y-12743D01*
G54D12*
X17032Y-7806D02*
X16432Y-7806D01*
X16282Y-7856D02*
X17182Y-7856D01*
X17282Y-7906D02*
X16182Y-7906D01*
X16082Y-7956D02*
X17382Y-7956D01*
X17432Y-8006D02*
X16032Y-8006D01*
X17932Y-8956D02*
G75*
G03X17932Y-8956I-1200J0D01*
G74*
G01*
X18032Y-7656D02*
X15432Y-7656D01*
X15432Y-7656D02*
X15432Y-9956D01*
X15432Y-9956D02*
X15732Y-10256D01*
X15732Y-10256D02*
X17732Y-10256D01*
X17732Y-10256D02*
X18032Y-9956D01*
X18032Y-9956D02*
X18032Y-7656D01*
X16732Y-9806D02*
X16732Y-9506D01*
X16882Y-9656D02*
X16582Y-9656D01*
G54D14*
X12727Y-9894D02*
X12699Y-9880D01*
X12670Y-9851D01*
X12627Y-9808D01*
X12599Y-9794D01*
X12570Y-9794D01*
X12584Y-9865D02*
X12556Y-9851D01*
X12527Y-9823D01*
X12513Y-9765D01*
X12513Y-9665D01*
X12527Y-9608D01*
X12556Y-9580D01*
X12584Y-9565D01*
X12641Y-9565D01*
X12670Y-9580D01*
X12699Y-9608D01*
X12713Y-9665D01*
X12713Y-9765D01*
X12699Y-9823D01*
X12670Y-9851D01*
X12641Y-9865D01*
X12584Y-9865D01*
X12813Y-9565D02*
X12999Y-9565D01*
X12899Y-9680D01*
X12941Y-9680D01*
X12970Y-9694D01*
X12984Y-9708D01*
X12999Y-9737D01*
X12999Y-9808D01*
X12984Y-9837D01*
X12970Y-9851D01*
X12941Y-9865D01*
X12856Y-9865D01*
X12827Y-9851D01*
X12813Y-9837D01*
G54D15*
X12771Y-10872D02*
X12781Y-10844D01*
X12790Y-10834D01*
X12809Y-10825D01*
X12837Y-10825D01*
X12856Y-10834D01*
X12865Y-10844D01*
X12875Y-10862D01*
X12875Y-10938D01*
X12678Y-10938D01*
X12678Y-10872D01*
X12687Y-10853D01*
X12696Y-10844D01*
X12715Y-10834D01*
X12734Y-10834D01*
X12753Y-10844D01*
X12762Y-10853D01*
X12771Y-10872D01*
X12771Y-10938D01*
X12856Y-10628D02*
X12865Y-10637D01*
X12875Y-10665D01*
X12875Y-10684D01*
X12865Y-10712D01*
X12846Y-10731D01*
X12828Y-10741D01*
X12790Y-10750D01*
X12762Y-10750D01*
X12724Y-10741D01*
X12706Y-10731D01*
X12687Y-10712D01*
X12678Y-10684D01*
X12678Y-10665D01*
X12687Y-10637D01*
X12696Y-10628D01*
X12762Y-10515D02*
X12753Y-10534D01*
X12743Y-10544D01*
X12724Y-10553D01*
X12715Y-10553D01*
X12696Y-10544D01*
X12687Y-10534D01*
X12678Y-10515D01*
X12678Y-10478D01*
X12687Y-10459D01*
X12696Y-10450D01*
X12715Y-10440D01*
X12724Y-10440D01*
X12743Y-10450D01*
X12753Y-10459D01*
X12762Y-10478D01*
X12762Y-10515D01*
X12771Y-10534D01*
X12781Y-10544D01*
X12799Y-10553D01*
X12837Y-10553D01*
X12856Y-10544D01*
X12865Y-10534D01*
X12875Y-10515D01*
X12875Y-10478D01*
X12865Y-10459D01*
X12856Y-10450D01*
X12837Y-10440D01*
X12799Y-10440D01*
X12781Y-10450D01*
X12771Y-10459D01*
X12762Y-10478D01*
X12743Y-10271D02*
X12875Y-10271D01*
X12668Y-10318D02*
X12809Y-10365D01*
X12809Y-10243D01*
X12678Y-10187D02*
X12678Y-10056D01*
X12875Y-10140D01*
G54D14*
X19146Y-9910D02*
X19132Y-9938D01*
X19103Y-9967D01*
X19060Y-10010D01*
X19046Y-10038D01*
X19046Y-10067D01*
X19117Y-10052D02*
X19103Y-10081D01*
X19075Y-10110D01*
X19017Y-10124D01*
X18917Y-10124D01*
X18860Y-10110D01*
X18832Y-10081D01*
X18817Y-10052D01*
X18817Y-9995D01*
X18832Y-9967D01*
X18860Y-9938D01*
X18917Y-9924D01*
X19017Y-9924D01*
X19075Y-9938D01*
X19103Y-9967D01*
X19117Y-9995D01*
X19117Y-10052D01*
X18846Y-9810D02*
X18832Y-9795D01*
X18817Y-9767D01*
X18817Y-9695D01*
X18832Y-9667D01*
X18846Y-9652D01*
X18875Y-9638D01*
X18903Y-9638D01*
X18946Y-9652D01*
X19117Y-9824D01*
X19117Y-9638D01*
G54D15*
X19392Y-9819D02*
X19420Y-9828D01*
X19430Y-9837D01*
X19439Y-9856D01*
X19439Y-9884D01*
X19430Y-9903D01*
X19420Y-9912D01*
X19401Y-9922D01*
X19326Y-9922D01*
X19326Y-9725D01*
X19392Y-9725D01*
X19411Y-9734D01*
X19420Y-9744D01*
X19430Y-9762D01*
X19430Y-9781D01*
X19420Y-9800D01*
X19411Y-9809D01*
X19392Y-9819D01*
X19326Y-9819D01*
X19636Y-9903D02*
X19627Y-9912D01*
X19598Y-9922D01*
X19580Y-9922D01*
X19552Y-9912D01*
X19533Y-9894D01*
X19523Y-9875D01*
X19514Y-9837D01*
X19514Y-9809D01*
X19523Y-9772D01*
X19533Y-9753D01*
X19552Y-9734D01*
X19580Y-9725D01*
X19598Y-9725D01*
X19627Y-9734D01*
X19636Y-9744D01*
X19749Y-9809D02*
X19730Y-9800D01*
X19720Y-9790D01*
X19711Y-9772D01*
X19711Y-9762D01*
X19720Y-9744D01*
X19730Y-9734D01*
X19749Y-9725D01*
X19786Y-9725D01*
X19805Y-9734D01*
X19814Y-9744D01*
X19824Y-9762D01*
X19824Y-9772D01*
X19814Y-9790D01*
X19805Y-9800D01*
X19786Y-9809D01*
X19749Y-9809D01*
X19730Y-9819D01*
X19720Y-9828D01*
X19711Y-9847D01*
X19711Y-9884D01*
X19720Y-9903D01*
X19730Y-9912D01*
X19749Y-9922D01*
X19786Y-9922D01*
X19805Y-9912D01*
X19814Y-9903D01*
X19824Y-9884D01*
X19824Y-9847D01*
X19814Y-9828D01*
X19805Y-9819D01*
X19786Y-9809D01*
X19992Y-9790D02*
X19992Y-9922D01*
X19946Y-9715D02*
X19899Y-9856D01*
X20021Y-9856D01*
X20077Y-9725D02*
X20208Y-9725D01*
X20124Y-9922D01*
G54D12*
X14462Y-10581D02*
X14477Y-10595D01*
X14491Y-10638D01*
X14491Y-10667D01*
X14477Y-10710D01*
X14448Y-10738D01*
X14420Y-10752D01*
X14362Y-10767D01*
X14320Y-10767D01*
X14262Y-10752D01*
X14234Y-10738D01*
X14205Y-10710D01*
X14191Y-10667D01*
X14191Y-10638D01*
X14205Y-10595D01*
X14220Y-10581D01*
X14491Y-10295D02*
X14491Y-10467D01*
X14491Y-10381D02*
X14191Y-10381D01*
X14234Y-10410D01*
X14262Y-10438D01*
X14277Y-10467D01*
X22463Y-22884D02*
X22321Y-22984D01*
X22463Y-23056D02*
X22163Y-23056D01*
X22163Y-22941D01*
X22178Y-22913D01*
X22192Y-22898D01*
X22221Y-22884D01*
X22263Y-22884D01*
X22292Y-22898D01*
X22306Y-22913D01*
X22321Y-22941D01*
X22321Y-23056D01*
X22463Y-22741D02*
X22463Y-22684D01*
X22449Y-22656D01*
X22435Y-22641D01*
X22392Y-22613D01*
X22335Y-22598D01*
X22221Y-22598D01*
X22192Y-22613D01*
X22178Y-22627D01*
X22163Y-22656D01*
X22163Y-22713D01*
X22178Y-22741D01*
X22192Y-22756D01*
X22221Y-22770D01*
X22292Y-22770D01*
X22321Y-22756D01*
X22335Y-22741D01*
X22349Y-22713D01*
X22349Y-22656D01*
X22335Y-22627D01*
X22321Y-22613D01*
X22292Y-22598D01*
X16066Y-27805D02*
X15923Y-27905D01*
X16066Y-27977D02*
X15766Y-27977D01*
X15766Y-27863D01*
X15780Y-27834D01*
X15794Y-27820D01*
X15823Y-27805D01*
X15866Y-27805D01*
X15894Y-27820D01*
X15909Y-27834D01*
X15923Y-27863D01*
X15923Y-27977D01*
X15894Y-27634D02*
X15880Y-27663D01*
X15866Y-27677D01*
X15837Y-27691D01*
X15823Y-27691D01*
X15794Y-27677D01*
X15780Y-27663D01*
X15766Y-27634D01*
X15766Y-27577D01*
X15780Y-27548D01*
X15794Y-27534D01*
X15823Y-27520D01*
X15837Y-27520D01*
X15866Y-27534D01*
X15880Y-27548D01*
X15894Y-27577D01*
X15894Y-27634D01*
X15909Y-27663D01*
X15923Y-27677D01*
X15952Y-27691D01*
X16009Y-27691D01*
X16037Y-27677D01*
X16052Y-27663D01*
X16066Y-27634D01*
X16066Y-27577D01*
X16052Y-27548D01*
X16037Y-27534D01*
X16009Y-27520D01*
X15952Y-27520D01*
X15923Y-27534D01*
X15909Y-27548D01*
X15894Y-27577D01*
X22857Y-18652D02*
X22714Y-18752D01*
X22857Y-18823D02*
X22557Y-18823D01*
X22557Y-18709D01*
X22571Y-18680D01*
X22586Y-18666D01*
X22614Y-18652D01*
X22657Y-18652D01*
X22686Y-18666D01*
X22700Y-18680D01*
X22714Y-18709D01*
X22714Y-18823D01*
X22557Y-18395D02*
X22557Y-18452D01*
X22571Y-18480D01*
X22586Y-18495D01*
X22629Y-18523D01*
X22686Y-18538D01*
X22800Y-18538D01*
X22829Y-18523D01*
X22843Y-18509D01*
X22857Y-18480D01*
X22857Y-18423D01*
X22843Y-18395D01*
X22829Y-18380D01*
X22800Y-18366D01*
X22729Y-18366D01*
X22700Y-18380D01*
X22686Y-18395D01*
X22671Y-18423D01*
X22671Y-18480D01*
X22686Y-18509D01*
X22700Y-18523D01*
X22729Y-18538D01*
X18625Y-27904D02*
X18482Y-28004D01*
X18625Y-28075D02*
X18325Y-28075D01*
X18325Y-27961D01*
X18339Y-27932D01*
X18353Y-27918D01*
X18382Y-27904D01*
X18425Y-27904D01*
X18453Y-27918D01*
X18468Y-27932D01*
X18482Y-27961D01*
X18482Y-28075D01*
X18353Y-27790D02*
X18339Y-27775D01*
X18325Y-27747D01*
X18325Y-27675D01*
X18339Y-27647D01*
X18353Y-27632D01*
X18382Y-27618D01*
X18411Y-27618D01*
X18453Y-27632D01*
X18625Y-27804D01*
X18625Y-27618D01*
X12227Y-18750D02*
X12084Y-18850D01*
X12227Y-18922D02*
X11927Y-18922D01*
X11927Y-18807D01*
X11942Y-18779D01*
X11956Y-18765D01*
X11984Y-18750D01*
X12027Y-18750D01*
X12056Y-18765D01*
X12070Y-18779D01*
X12084Y-18807D01*
X12084Y-18922D01*
X12227Y-18465D02*
X12227Y-18636D01*
X12227Y-18550D02*
X11927Y-18550D01*
X11970Y-18579D01*
X11999Y-18607D01*
X12013Y-18636D01*
X20003Y-12550D02*
X19860Y-12650D01*
X20003Y-12721D02*
X19703Y-12721D01*
X19703Y-12607D01*
X19717Y-12578D01*
X19731Y-12564D01*
X19760Y-12550D01*
X19803Y-12550D01*
X19831Y-12564D01*
X19846Y-12578D01*
X19860Y-12607D01*
X19860Y-12721D01*
X19703Y-12450D02*
X19703Y-12250D01*
X20003Y-12378D01*
X18822Y-12550D02*
X18679Y-12650D01*
X18822Y-12721D02*
X18522Y-12721D01*
X18522Y-12607D01*
X18536Y-12578D01*
X18550Y-12564D01*
X18579Y-12550D01*
X18622Y-12550D01*
X18650Y-12564D01*
X18665Y-12578D01*
X18679Y-12607D01*
X18679Y-12721D01*
X18522Y-12450D02*
X18522Y-12264D01*
X18636Y-12364D01*
X18636Y-12321D01*
X18650Y-12292D01*
X18665Y-12278D01*
X18693Y-12264D01*
X18765Y-12264D01*
X18793Y-12278D01*
X18807Y-12292D01*
X18822Y-12321D01*
X18822Y-12407D01*
X18807Y-12435D01*
X18793Y-12450D01*
X15771Y-12550D02*
X15628Y-12650D01*
X15771Y-12721D02*
X15471Y-12721D01*
X15471Y-12607D01*
X15485Y-12578D01*
X15499Y-12564D01*
X15528Y-12550D01*
X15571Y-12550D01*
X15599Y-12564D01*
X15613Y-12578D01*
X15628Y-12607D01*
X15628Y-12721D01*
X15571Y-12292D02*
X15771Y-12292D01*
X15456Y-12364D02*
X15671Y-12435D01*
X15671Y-12250D01*
X12942Y-12621D02*
X12842Y-12478D01*
X12770Y-12621D02*
X12770Y-12321D01*
X12884Y-12321D01*
X12913Y-12335D01*
X12927Y-12350D01*
X12942Y-12378D01*
X12942Y-12421D01*
X12927Y-12450D01*
X12913Y-12464D01*
X12884Y-12478D01*
X12770Y-12478D01*
X13213Y-12321D02*
X13070Y-12321D01*
X13056Y-12464D01*
X13070Y-12450D01*
X13099Y-12435D01*
X13170Y-12435D01*
X13199Y-12450D01*
X13213Y-12464D01*
X13227Y-12492D01*
X13227Y-12564D01*
X13213Y-12592D01*
X13199Y-12607D01*
X13170Y-12621D01*
X13099Y-12621D01*
X13070Y-12607D01*
X13056Y-12592D01*
G54D10*
X16478Y-15467D02*
X16084Y-15467D01*
X16084Y-15374D01*
X16103Y-15317D01*
X16140Y-15280D01*
X16178Y-15261D01*
X16253Y-15242D01*
X16309Y-15242D01*
X16384Y-15261D01*
X16422Y-15280D01*
X16459Y-15317D01*
X16478Y-15374D01*
X16478Y-15467D01*
X16478Y-14867D02*
X16478Y-15092D01*
X16478Y-14980D02*
X16084Y-14980D01*
X16140Y-15017D01*
X16178Y-15055D01*
X16197Y-15092D01*
X18604Y-15627D02*
X18604Y-15814D01*
X18210Y-15814D01*
X18398Y-15495D02*
X18398Y-15364D01*
X18604Y-15308D02*
X18604Y-15495D01*
X18210Y-15495D01*
X18210Y-15308D01*
X18604Y-15139D02*
X18210Y-15139D01*
X18210Y-15045D01*
X18229Y-14989D01*
X18266Y-14952D01*
X18304Y-14933D01*
X18379Y-14914D01*
X18435Y-14914D01*
X18510Y-14933D01*
X18547Y-14952D01*
X18585Y-14989D01*
X18604Y-15045D01*
X18604Y-15139D01*
X20084Y-25232D02*
X20362Y-24953D01*
X20428Y-25019D01*
X20455Y-25072D01*
X20455Y-25125D01*
X20442Y-25165D01*
X20402Y-25232D01*
X20362Y-25271D01*
X20296Y-25311D01*
X20256Y-25324D01*
X20203Y-25324D01*
X20150Y-25298D01*
X20084Y-25232D01*
X20508Y-25656D02*
X20349Y-25497D01*
X20428Y-25576D02*
X20707Y-25298D01*
X20641Y-25311D01*
X20588Y-25311D01*
X20548Y-25298D01*
X20959Y-25550D02*
X20985Y-25576D01*
X20999Y-25616D01*
X20999Y-25642D01*
X20985Y-25682D01*
X20945Y-25749D01*
X20879Y-25815D01*
X20813Y-25855D01*
X20773Y-25868D01*
X20747Y-25868D01*
X20707Y-25855D01*
X20680Y-25828D01*
X20667Y-25788D01*
X20667Y-25762D01*
X20680Y-25722D01*
X20720Y-25656D01*
X20786Y-25589D01*
X20853Y-25550D01*
X20892Y-25536D01*
X20919Y-25536D01*
X20959Y-25550D01*
X21885Y-24026D02*
X21753Y-23894D01*
X22031Y-23616D01*
X22124Y-23973D02*
X22217Y-24066D01*
X22111Y-24252D02*
X21978Y-24119D01*
X22257Y-23841D01*
X22389Y-23973D01*
X22230Y-24371D02*
X22508Y-24093D01*
X22575Y-24159D01*
X22601Y-24212D01*
X22601Y-24265D01*
X22588Y-24305D01*
X22548Y-24371D01*
X22508Y-24411D01*
X22442Y-24451D01*
X22402Y-24464D01*
X22349Y-24464D01*
X22296Y-24437D01*
X22230Y-24371D01*
X13848Y-25747D02*
X13570Y-25469D01*
X13636Y-25403D01*
X13689Y-25376D01*
X13742Y-25376D01*
X13782Y-25389D01*
X13848Y-25429D01*
X13888Y-25469D01*
X13928Y-25535D01*
X13941Y-25575D01*
X13941Y-25628D01*
X13915Y-25681D01*
X13848Y-25747D01*
X14140Y-25456D02*
X14193Y-25403D01*
X14206Y-25363D01*
X14206Y-25336D01*
X14193Y-25270D01*
X14153Y-25204D01*
X14047Y-25098D01*
X14007Y-25084D01*
X13981Y-25084D01*
X13941Y-25098D01*
X13888Y-25151D01*
X13875Y-25190D01*
X13875Y-25217D01*
X13888Y-25257D01*
X13954Y-25323D01*
X13994Y-25336D01*
X14021Y-25336D01*
X14060Y-25323D01*
X14113Y-25270D01*
X14127Y-25230D01*
X14127Y-25204D01*
X14113Y-25164D01*
X12511Y-24078D02*
X12378Y-24211D01*
X12100Y-23932D01*
X12458Y-23840D02*
X12550Y-23747D01*
X12736Y-23853D02*
X12604Y-23985D01*
X12325Y-23707D01*
X12458Y-23574D01*
X12855Y-23734D02*
X12577Y-23455D01*
X12643Y-23389D01*
X12696Y-23362D01*
X12749Y-23362D01*
X12789Y-23376D01*
X12855Y-23415D01*
X12895Y-23455D01*
X12935Y-23521D01*
X12948Y-23561D01*
X12948Y-23614D01*
X12922Y-23667D01*
X12855Y-23734D01*
X13919Y-27672D02*
X13525Y-27672D01*
X13525Y-27578D01*
X13544Y-27522D01*
X13581Y-27485D01*
X13619Y-27466D01*
X13694Y-27447D01*
X13750Y-27447D01*
X13825Y-27466D01*
X13862Y-27485D01*
X13900Y-27522D01*
X13919Y-27578D01*
X13919Y-27672D01*
X13694Y-27222D02*
X13675Y-27260D01*
X13656Y-27278D01*
X13619Y-27297D01*
X13600Y-27297D01*
X13562Y-27278D01*
X13544Y-27260D01*
X13525Y-27222D01*
X13525Y-27147D01*
X13544Y-27110D01*
X13562Y-27091D01*
X13600Y-27072D01*
X13619Y-27072D01*
X13656Y-27091D01*
X13675Y-27110D01*
X13694Y-27147D01*
X13694Y-27222D01*
X13712Y-27260D01*
X13731Y-27278D01*
X13769Y-27297D01*
X13844Y-27297D01*
X13881Y-27278D01*
X13900Y-27260D01*
X13919Y-27222D01*
X13919Y-27147D01*
X13900Y-27110D01*
X13881Y-27091D01*
X13844Y-27072D01*
X13769Y-27072D01*
X13731Y-27091D01*
X13712Y-27110D01*
X13694Y-27147D01*
X16045Y-27831D02*
X16045Y-28019D01*
X15651Y-28019D01*
X15838Y-27700D02*
X15838Y-27569D01*
X16045Y-27513D02*
X16045Y-27700D01*
X15651Y-27700D01*
X15651Y-27513D01*
X16045Y-27344D02*
X15651Y-27344D01*
X15651Y-27250D01*
X15670Y-27194D01*
X15707Y-27156D01*
X15745Y-27138D01*
X15820Y-27119D01*
X15876Y-27119D01*
X15951Y-27138D01*
X15988Y-27156D01*
X16026Y-27194D01*
X16045Y-27250D01*
X16045Y-27344D01*
X11599Y-20119D02*
X11599Y-19726D01*
X11692Y-19726D01*
X11749Y-19745D01*
X11786Y-19782D01*
X11805Y-19820D01*
X11824Y-19895D01*
X11824Y-19951D01*
X11805Y-20026D01*
X11786Y-20063D01*
X11749Y-20101D01*
X11692Y-20119D01*
X11599Y-20119D01*
X11955Y-19726D02*
X12217Y-19726D01*
X12049Y-20119D01*
X11439Y-22245D02*
X11252Y-22245D01*
X11252Y-21852D01*
X11571Y-22039D02*
X11702Y-22039D01*
X11758Y-22245D02*
X11571Y-22245D01*
X11571Y-21852D01*
X11758Y-21852D01*
X11927Y-22245D02*
X11927Y-21852D01*
X12020Y-21852D01*
X12077Y-21871D01*
X12114Y-21908D01*
X12133Y-21946D01*
X12152Y-22020D01*
X12152Y-22077D01*
X12133Y-22152D01*
X12114Y-22189D01*
X12077Y-22227D01*
X12020Y-22245D01*
X11927Y-22245D01*
X22268Y-21931D02*
X22268Y-21537D01*
X22362Y-21537D01*
X22418Y-21556D01*
X22455Y-21593D01*
X22474Y-21631D01*
X22493Y-21706D01*
X22493Y-21762D01*
X22474Y-21837D01*
X22455Y-21874D01*
X22418Y-21912D01*
X22362Y-21931D01*
X22268Y-21931D01*
X22830Y-21537D02*
X22755Y-21537D01*
X22718Y-21556D01*
X22699Y-21574D01*
X22662Y-21631D01*
X22643Y-21706D01*
X22643Y-21856D01*
X22662Y-21893D01*
X22680Y-21912D01*
X22718Y-21931D01*
X22793Y-21931D01*
X22830Y-21912D01*
X22849Y-21893D01*
X22868Y-21856D01*
X22868Y-21762D01*
X22849Y-21724D01*
X22830Y-21706D01*
X22793Y-21687D01*
X22718Y-21687D01*
X22680Y-21706D01*
X22662Y-21724D01*
X22643Y-21762D01*
X22502Y-19805D02*
X22315Y-19805D01*
X22315Y-19411D01*
X22634Y-19598D02*
X22765Y-19598D01*
X22821Y-19805D02*
X22634Y-19805D01*
X22634Y-19411D01*
X22821Y-19411D01*
X22990Y-19805D02*
X22990Y-19411D01*
X23083Y-19411D01*
X23140Y-19430D01*
X23177Y-19467D01*
X23196Y-19505D01*
X23215Y-19580D01*
X23215Y-19636D01*
X23196Y-19711D01*
X23177Y-19748D01*
X23140Y-19786D01*
X23083Y-19805D01*
X22990Y-19805D01*
X20611Y-16620D02*
X20332Y-16342D01*
X20399Y-16276D01*
X20452Y-16249D01*
X20505Y-16249D01*
X20544Y-16262D01*
X20611Y-16302D01*
X20651Y-16342D01*
X20690Y-16408D01*
X20704Y-16448D01*
X20704Y-16501D01*
X20677Y-16554D01*
X20611Y-16620D01*
X20743Y-15931D02*
X20611Y-16064D01*
X20730Y-16209D01*
X20730Y-16183D01*
X20743Y-16143D01*
X20810Y-16077D01*
X20849Y-16064D01*
X20876Y-16064D01*
X20916Y-16077D01*
X20982Y-16143D01*
X20995Y-16183D01*
X20995Y-16209D01*
X20982Y-16249D01*
X20916Y-16316D01*
X20876Y-16329D01*
X20849Y-16329D01*
X22001Y-18236D02*
X21869Y-18369D01*
X21590Y-18091D01*
X21948Y-17998D02*
X22041Y-17905D01*
X22227Y-18011D02*
X22094Y-18144D01*
X21816Y-17865D01*
X21948Y-17733D01*
X22346Y-17892D02*
X22068Y-17613D01*
X22134Y-17547D01*
X22187Y-17521D01*
X22240Y-17521D01*
X22280Y-17534D01*
X22346Y-17574D01*
X22386Y-17613D01*
X22426Y-17680D01*
X22439Y-17719D01*
X22439Y-17772D01*
X22412Y-17825D01*
X22346Y-17892D01*
X19037Y-27672D02*
X18643Y-27672D01*
X18643Y-27578D01*
X18662Y-27522D01*
X18699Y-27485D01*
X18737Y-27466D01*
X18812Y-27447D01*
X18868Y-27447D01*
X18943Y-27466D01*
X18981Y-27485D01*
X19018Y-27522D01*
X19037Y-27578D01*
X19037Y-27672D01*
X18774Y-27110D02*
X19037Y-27110D01*
X18624Y-27203D02*
X18906Y-27297D01*
X18906Y-27053D01*
X21163Y-27831D02*
X21163Y-28019D01*
X20769Y-28019D01*
X20957Y-27700D02*
X20957Y-27569D01*
X21163Y-27513D02*
X21163Y-27700D01*
X20769Y-27700D01*
X20769Y-27513D01*
X21163Y-27344D02*
X20769Y-27344D01*
X20769Y-27250D01*
X20788Y-27194D01*
X20825Y-27156D01*
X20863Y-27138D01*
X20938Y-27119D01*
X20994Y-27119D01*
X21069Y-27138D01*
X21107Y-27156D01*
X21144Y-27194D01*
X21163Y-27250D01*
X21163Y-27344D01*
X16478Y-26491D02*
X16084Y-26491D01*
X16084Y-26397D01*
X16103Y-26341D01*
X16140Y-26303D01*
X16178Y-26285D01*
X16253Y-26266D01*
X16309Y-26266D01*
X16384Y-26285D01*
X16422Y-26303D01*
X16459Y-26341D01*
X16478Y-26397D01*
X16478Y-26491D01*
X16084Y-26135D02*
X16084Y-25891D01*
X16234Y-26022D01*
X16234Y-25966D01*
X16253Y-25928D01*
X16272Y-25910D01*
X16309Y-25891D01*
X16403Y-25891D01*
X16440Y-25910D01*
X16459Y-25928D01*
X16478Y-25966D01*
X16478Y-26078D01*
X16459Y-26116D01*
X16440Y-26135D01*
X18604Y-26650D02*
X18604Y-26838D01*
X18210Y-26838D01*
X18398Y-26519D02*
X18398Y-26388D01*
X18604Y-26332D02*
X18604Y-26519D01*
X18210Y-26519D01*
X18210Y-26332D01*
X18604Y-26163D02*
X18210Y-26163D01*
X18210Y-26069D01*
X18229Y-26013D01*
X18266Y-25975D01*
X18304Y-25957D01*
X18379Y-25938D01*
X18435Y-25938D01*
X18510Y-25957D01*
X18547Y-25975D01*
X18585Y-26013D01*
X18604Y-26069D01*
X18604Y-26163D01*
X13595Y-16182D02*
X13874Y-15903D01*
X13940Y-15970D01*
X13966Y-16023D01*
X13966Y-16076D01*
X13953Y-16115D01*
X13913Y-16182D01*
X13874Y-16221D01*
X13807Y-16261D01*
X13767Y-16274D01*
X13714Y-16274D01*
X13661Y-16248D01*
X13595Y-16182D01*
X14112Y-16195D02*
X14139Y-16195D01*
X14178Y-16208D01*
X14245Y-16274D01*
X14258Y-16314D01*
X14258Y-16341D01*
X14245Y-16380D01*
X14218Y-16407D01*
X14165Y-16434D01*
X13847Y-16434D01*
X14019Y-16606D01*
X11979Y-17572D02*
X11847Y-17440D01*
X12125Y-17161D01*
X12218Y-17519D02*
X12311Y-17612D01*
X12205Y-17798D02*
X12072Y-17665D01*
X12350Y-17387D01*
X12483Y-17519D01*
X12324Y-17917D02*
X12602Y-17639D01*
X12668Y-17705D01*
X12695Y-17758D01*
X12695Y-17811D01*
X12682Y-17851D01*
X12642Y-17917D01*
X12602Y-17957D01*
X12536Y-17996D01*
X12496Y-18010D01*
X12443Y-18010D01*
X12390Y-17983D01*
X12324Y-17917D01*
G54D16*
X22939Y-14336D02*
X22920Y-14355D01*
X22863Y-14374D01*
X22825Y-14374D01*
X22768Y-14355D01*
X22729Y-14316D01*
X22710Y-14278D01*
X22691Y-14202D01*
X22691Y-14145D01*
X22710Y-14069D01*
X22729Y-14031D01*
X22768Y-13993D01*
X22825Y-13974D01*
X22863Y-13974D01*
X22920Y-13993D01*
X22939Y-14012D01*
X23187Y-13974D02*
X23263Y-13974D01*
X23301Y-13993D01*
X23339Y-14031D01*
X23358Y-14107D01*
X23358Y-14240D01*
X23339Y-14316D01*
X23301Y-14355D01*
X23263Y-14374D01*
X23187Y-14374D01*
X23149Y-14355D01*
X23110Y-14316D01*
X23091Y-14240D01*
X23091Y-14107D01*
X23110Y-14031D01*
X23149Y-13993D01*
X23187Y-13974D01*
X23529Y-14374D02*
X23529Y-13974D01*
X23758Y-14374D01*
X23758Y-13974D01*
X24158Y-14374D02*
X23929Y-14374D01*
X24044Y-14374D02*
X24044Y-13974D01*
X24006Y-14031D01*
X23968Y-14069D01*
X23929Y-14088D01*
G54D10*
X12798Y-8595D02*
X12816Y-8539D01*
X12816Y-8445D01*
X12798Y-8408D01*
X12779Y-8389D01*
X12741Y-8370D01*
X12704Y-8370D01*
X12666Y-8389D01*
X12648Y-8408D01*
X12629Y-8445D01*
X12610Y-8520D01*
X12591Y-8558D01*
X12573Y-8577D01*
X12535Y-8595D01*
X12498Y-8595D01*
X12460Y-8577D01*
X12441Y-8558D01*
X12423Y-8520D01*
X12423Y-8427D01*
X12441Y-8370D01*
X12423Y-8239D02*
X12816Y-8145D01*
X12535Y-8070D01*
X12816Y-7995D01*
X12423Y-7902D01*
X12816Y-7545D02*
X12816Y-7770D01*
X12816Y-7658D02*
X12423Y-7658D01*
X12479Y-7695D01*
X12516Y-7733D01*
X12535Y-7770D01*
X10475Y-11178D02*
X10494Y-11122D01*
X10494Y-11028D01*
X10475Y-10990D01*
X10456Y-10972D01*
X10419Y-10953D01*
X10381Y-10953D01*
X10344Y-10972D01*
X10325Y-10990D01*
X10306Y-11028D01*
X10287Y-11103D01*
X10269Y-11140D01*
X10250Y-11159D01*
X10212Y-11178D01*
X10175Y-11178D01*
X10137Y-11159D01*
X10119Y-11140D01*
X10100Y-11103D01*
X10100Y-11009D01*
X10119Y-10953D01*
X10494Y-10784D02*
X10100Y-10784D01*
X10100Y-10634D01*
X10119Y-10597D01*
X10137Y-10578D01*
X10175Y-10559D01*
X10231Y-10559D01*
X10269Y-10578D01*
X10287Y-10597D01*
X10306Y-10634D01*
X10306Y-10784D01*
X10475Y-10409D02*
X10494Y-10353D01*
X10494Y-10259D01*
X10475Y-10222D01*
X10456Y-10203D01*
X10419Y-10184D01*
X10381Y-10184D01*
X10344Y-10203D01*
X10325Y-10222D01*
X10306Y-10259D01*
X10287Y-10334D01*
X10269Y-10372D01*
X10250Y-10390D01*
X10212Y-10409D01*
X10175Y-10409D01*
X10137Y-10390D01*
X10119Y-10372D01*
X10100Y-10334D01*
X10100Y-10240D01*
X10119Y-10184D01*
X10100Y-10072D02*
X10100Y-9847D01*
X10494Y-9959D02*
X10100Y-9959D01*
G54D17*
X17195Y-12193D02*
X17167Y-12179D01*
X17138Y-12150D01*
X17095Y-12107D01*
X17067Y-12093D01*
X17038Y-12093D01*
X17052Y-12165D02*
X17024Y-12150D01*
X16995Y-12122D01*
X16981Y-12065D01*
X16981Y-11965D01*
X16995Y-11907D01*
X17024Y-11879D01*
X17052Y-11865D01*
X17110Y-11865D01*
X17138Y-11879D01*
X17167Y-11907D01*
X17181Y-11965D01*
X17181Y-12065D01*
X17167Y-12122D01*
X17138Y-12150D01*
X17110Y-12165D01*
X17052Y-12165D01*
X17467Y-12165D02*
X17295Y-12165D01*
X17381Y-12165D02*
X17381Y-11865D01*
X17352Y-11907D01*
X17324Y-11936D01*
X17295Y-11950D01*
X16674Y-12857D02*
X16717Y-12872D01*
X16731Y-12886D01*
X16745Y-12915D01*
X16745Y-12957D01*
X16731Y-12986D01*
X16717Y-13000D01*
X16688Y-13015D01*
X16574Y-13015D01*
X16574Y-12715D01*
X16674Y-12715D01*
X16702Y-12729D01*
X16717Y-12743D01*
X16731Y-12772D01*
X16731Y-12800D01*
X16717Y-12829D01*
X16702Y-12843D01*
X16674Y-12857D01*
X16574Y-12857D01*
X16860Y-13000D02*
X16902Y-13015D01*
X16974Y-13015D01*
X17002Y-13000D01*
X17017Y-12986D01*
X17031Y-12957D01*
X17031Y-12929D01*
X17017Y-12900D01*
X17002Y-12886D01*
X16974Y-12872D01*
X16917Y-12857D01*
X16888Y-12843D01*
X16874Y-12829D01*
X16860Y-12800D01*
X16860Y-12772D01*
X16874Y-12743D01*
X16888Y-12729D01*
X16917Y-12715D01*
X16988Y-12715D01*
X17031Y-12729D01*
X17145Y-13000D02*
X17188Y-13015D01*
X17260Y-13015D01*
X17288Y-13000D01*
X17302Y-12986D01*
X17317Y-12957D01*
X17317Y-12929D01*
X17302Y-12900D01*
X17288Y-12886D01*
X17260Y-12872D01*
X17202Y-12857D01*
X17174Y-12843D01*
X17160Y-12829D01*
X17145Y-12800D01*
X17145Y-12772D01*
X17160Y-12743D01*
X17174Y-12729D01*
X17202Y-12715D01*
X17274Y-12715D01*
X17317Y-12729D01*
X17488Y-12843D02*
X17460Y-12829D01*
X17445Y-12815D01*
X17431Y-12786D01*
X17431Y-12772D01*
X17445Y-12743D01*
X17460Y-12729D01*
X17488Y-12715D01*
X17545Y-12715D01*
X17574Y-12729D01*
X17588Y-12743D01*
X17602Y-12772D01*
X17602Y-12786D01*
X17588Y-12815D01*
X17574Y-12829D01*
X17545Y-12843D01*
X17488Y-12843D01*
X17460Y-12857D01*
X17445Y-12872D01*
X17431Y-12900D01*
X17431Y-12957D01*
X17445Y-12986D01*
X17460Y-13000D01*
X17488Y-13015D01*
X17545Y-13015D01*
X17574Y-13000D01*
X17588Y-12986D01*
X17602Y-12957D01*
X17602Y-12900D01*
X17588Y-12872D01*
X17574Y-12857D01*
X17545Y-12843D01*
X17860Y-12815D02*
X17860Y-13015D01*
X17788Y-12700D02*
X17717Y-12915D01*
X17902Y-12915D01*
G54D14*
X18343Y-8989D02*
X18352Y-8998D01*
X18362Y-9027D01*
X18362Y-9045D01*
X18352Y-9073D01*
X18333Y-9092D01*
X18315Y-9102D01*
X18277Y-9111D01*
X18249Y-9111D01*
X18211Y-9102D01*
X18193Y-9092D01*
X18174Y-9073D01*
X18165Y-9045D01*
X18165Y-9027D01*
X18174Y-8998D01*
X18183Y-8989D01*
X18183Y-8914D02*
X18174Y-8905D01*
X18165Y-8886D01*
X18165Y-8839D01*
X18174Y-8820D01*
X18183Y-8811D01*
X18202Y-8801D01*
X18221Y-8801D01*
X18249Y-8811D01*
X18362Y-8923D01*
X18362Y-8801D01*
M02*
